/* XPM */
static char * C:\Users\crime\Shared\Win10dark_elemen_fire\xfwm4\maximize_prelight_xpm[] = {
"45 32 4 1",
" 	c None",
".	c #CCB100",
"+	c #ffe01a",
"@	c #000000",
".............................................",
"+++++++++++++++++++++++++++++++++++++++++++++",
"+++++++++++++++++++++++++++++++++++++++++++++",
"+++++++++++++++++++++++++++++++++++++++++++++",
"+++++++++++++++++++++++++++++++++++++++++++++",
"+++++++++++++++++++++++++++++++++++++++++++++",
"+++++++++++++++++++++++++++++++++++++++++++++",
"+++++++++++++++++++++++++++++++++++++++++++++",
"+++++++++++++++++++++++++++++++++++++++++++++",
"+++++++++++++++++++++++++++++++++++++++++++++",
"++++++++++++++++++@@@@@@@@@@+++++++++++++++++",
"++++++++++++++++++@++++++++@+++++++++++++++++",
"++++++++++++++++++@++++++++@+++++++++++++++++",
"++++++++++++++++++@++++++++@+++++++++++++++++",
"++++++++++++++++++@++++++++@+++++++++++++++++",
"++++++++++++++++++@++++++++@+++++++++++++++++",
"++++++++++++++++++@++++++++@+++++++++++++++++",
"++++++++++++++++++@++++++++@+++++++++++++++++",
"++++++++++++++++++@++++++++@+++++++++++++++++",
"++++++++++++++++++@@@@@@@@@@+++++++++++++++++",
"+++++++++++++++++++++++++++++++++++++++++++++",
"+++++++++++++++++++++++++++++++++++++++++++++",
"+++++++++++++++++++++++++++++++++++++++++++++",
"+++++++++++++++++++++++++++++++++++++++++++++",
"+++++++++++++++++++++++++++++++++++++++++++++",
"+++++++++++++++++++++++++++++++++++++++++++++",
"+++++++++++++++++++++++++++++++++++++++++++++",
"+++++++++++++++++++++++++++++++++++++++++++++",
"+++++++++++++++++++++++++++++++++++++++++++++",
"+++++++++++++++++++++++++++++++++++++++++++++",
"+++++++++++++++++++++++++++++++++++++++++++++",
"+++++++++++++++++++++++++++++++++++++++++++++"};
