/* XPM */
static char * maximize_toggled_inactive_xpm[] = {
"32 32 2 1",
" 	c #F0D000",
".	c #000000",
"                                ",
"                                ",
"                                ",
"                                ",
"                                ",
"                                ",
"                                ",
"                                ",
"                                ",
"                                ",
"             ........           ",
"             .      .           ",
"           ........ .           ",
"           .      . .           ",
"           .      . .           ",
"           .      . .           ",
"           .      . .           ",
"           .      ...           ",
"           .      .             ",
"           ........             ",
"                                ",
"                                ",
"                                ",
"                                ",
"                                ",
"                                ",
"                                ",
"                                ",
"                                ",
"                                ",
"                                ",
"                                "};
