/* XPM */
static char * C:\Users\crime\Shared\Win10dark_elemen_fire\xfwm4\title_4_inactive_xpm[] = {
"32 32 3 1",
" 	c None",
".	c #CCB100",
"+	c #F0D000",
"................................",
"++++++++++++++++++++++++++++++++",
"++++++++++++++++++++++++++++++++",
"++++++++++++++++++++++++++++++++",
"++++++++++++++++++++++++++++++++",
"++++++++++++++++++++++++++++++++",
"++++++++++++++++++++++++++++++++",
"++++++++++++++++++++++++++++++++",
"++++++++++++++++++++++++++++++++",
"++++++++++++++++++++++++++++++++",
"++++++++++++++++++++++++++++++++",
"++++++++++++++++++++++++++++++++",
"++++++++++++++++++++++++++++++++",
"++++++++++++++++++++++++++++++++",
"++++++++++++++++++++++++++++++++",
"++++++++++++++++++++++++++++++++",
"++++++++++++++++++++++++++++++++",
"++++++++++++++++++++++++++++++++",
"++++++++++++++++++++++++++++++++",
"++++++++++++++++++++++++++++++++",
"++++++++++++++++++++++++++++++++",
"++++++++++++++++++++++++++++++++",
"++++++++++++++++++++++++++++++++",
"++++++++++++++++++++++++++++++++",
"++++++++++++++++++++++++++++++++",
"++++++++++++++++++++++++++++++++",
"++++++++++++++++++++++++++++++++",
"++++++++++++++++++++++++++++++++",
"++++++++++++++++++++++++++++++++",
"++++++++++++++++++++++++++++++++",
"++++++++++++++++++++++++++++++++",
"++++++++++++++++++++++++++++++++"};
